<?xml version="1.0" encoding="utf-8"?>
<!-- Generator: Adobe Illustrator 26.5.0, SVG Export Plug-In . SVG Version: 6.00 Build 0)  -->
<svg version="1.1" id="Publicdomainvectors.org" xmlns="http://www.w3.org/2000/svg" xmlns:xlink="http://www.w3.org/1999/xlink"
	 x="0px" y="0px" viewBox="0 0 421.4 113" style="enable-background:new 0 0 421.4 113;" xml:space="preserve">
<style type="text/css">
	.st0{fill-rule:evenodd;clip-rule:evenodd;fill:#676321;}
	.st1{fill-rule:evenodd;clip-rule:evenodd;fill:#CEC986;}
	.st2{fill-rule:evenodd;clip-rule:evenodd;fill:#59541D;}
	.st3{fill-rule:evenodd;clip-rule:evenodd;fill:#898524;}
	.st4{fill-rule:evenodd;clip-rule:evenodd;fill:#77683E;}
	.st5{fill-rule:evenodd;clip-rule:evenodd;fill:#767223;}
</style>
<g>
	<path class="st0" d="M334.3,2.8c0-3.7-17.1-3.7-17.1,0v71.7c0,5.7,17.1,5.7,17.1,0V2.8z"/>
	<path class="st1" d="M334.3,2.8c0-3.7-17.1-3.7-17.1,0C317.2,6.6,334.3,6.5,334.3,2.8z"/>
	<path class="st2" d="M317.2,54.7v19.9c0,5.7,17.1,5.7,17.1,0V54.7C334.3,60.4,317.2,60.4,317.2,54.7z"/>
</g>
<g>
	<g>
		<path class="st0" d="M234.3,2.8c0-3.7-17.1-3.7-17.1,0c0,23.9,0,47.8,0,71.7c0,5.7,17.1,5.7,17.1,0
			C234.3,50.6,234.3,26.7,234.3,2.8z"/>
		<path class="st1" d="M234.3,2.8c0-3.7-17.1-3.7-17.1,0C217.2,6.6,234.3,6.5,234.3,2.8z"/>
		<path class="st2" d="M217.2,54.7c0,6.6,0,13.2,0,19.9c0,5.7,17.1,5.7,17.1,0c0-6.6,0-13.2,0-19.9
			C234.3,60.4,217.2,60.4,217.2,54.7z"/>
	</g>
	<g>
		<path class="st0" d="M134.3,2.8c0-3.7-17.1-3.7-17.1,0c0,23.9,0,47.8,0,71.7c0,5.7,17.1,5.7,17.1,0
			C134.3,50.6,134.3,26.7,134.3,2.8z"/>
		<path class="st1" d="M134.3,2.8c0-3.7-17.1-3.7-17.1,0C117.2,6.6,134.3,6.5,134.3,2.8z"/>
		<path class="st2" d="M117.2,54.7c0,6.6,0,13.2,0,19.9c0,5.7,17.1,5.7,17.1,0c0-6.6,0-13.2,0-19.9
			C134.3,60.4,117.2,60.4,117.2,54.7z"/>
	</g>
</g>
<g>
	<path class="st0" d="M34.3,2.8c0-3.7-17.1-3.7-17.1,0v71.7c0,5.7,17.1,5.7,17.1,0V2.8z"/>
	<path class="st1" d="M34.3,2.8c0-3.7-17.1-3.7-17.1,0C17.1,6.6,34.3,6.5,34.3,2.8z"/>
	<path class="st2" d="M17.1,54.7v19.9c0,5.7,17.1,5.7,17.1,0V54.7C34.3,60.4,17.1,60.4,17.1,54.7z"/>
</g>
<rect y="56.4" class="st3" width="421.4" height="13.7"/>
<polygon class="st4" points="421.4,56.4 372.2,22.7 0,22.7 0,56.4 "/>
<path class="st3" d="M346.6,22.7h-3.1l34.9,33.7h3.1L346.6,22.7L346.6,22.7z M306.5,22.7h-3l32.2,33.7h3L306.5,22.7L306.5,22.7z
	 M266.3,22.7h-2.9l29.4,33.7h2.9L266.3,22.7L266.3,22.7z M226.1,22.7h-2.7L250,56.4h2.7L226.1,22.7L226.1,22.7z M185.9,22.7h-2.6
	l23.9,33.7h2.6L185.9,22.7L185.9,22.7z M145.8,22.7h-2.5l21.1,33.7h2.5L145.8,22.7L145.8,22.7z M105.6,22.7h-2.5l18.4,33.7h2.5
	L105.6,22.7L105.6,22.7z M65.5,22.7h-2.4l15.6,33.7h2.4L65.5,22.7L65.5,22.7z M25.3,22.7H23l12.8,33.7h2.3L25.3,22.7z"/>
<path class="st0" d="M381.6,56.4h-3.1v13.8h3.1V56.4L381.6,56.4z M35.8,56.4h2.3v13.8h-2.3V56.4L35.8,56.4z M81.1,56.4h-2.4v13.8
	h2.4V56.4L81.1,56.4z M121.5,56.4h2.5v13.8h-2.4V56.4H121.5z M166.9,56.4h-2.5v13.8h2.5V56.4L166.9,56.4z M207.2,56.4h2.6v13.8h-2.6
	V56.4L207.2,56.4z M250,56.4h2.7v13.8H250V56.4L250,56.4z M292.8,56.4h2.9v13.8h-2.9V56.4L292.8,56.4z M335.6,56.4h3v13.8h-3V56.4z"
	/>
<path class="st0" d="M385.5,36.9c0-3.7-17.1-3.7-17.1,0v71.7c0,5.7,17.1,5.7,17.1,0V36.9z"/>
<path class="st1" d="M385.5,36.9c0-3.7-17.1-3.7-17.1,0C368.4,40.7,385.5,40.6,385.5,36.9z"/>
<rect x="364.3" y="56.8" class="st5" width="4.1" height="13.3"/>
<path class="st2" d="M368.4,88.8v19.9c0,5.7,17.1,5.7,17.1,0V88.8C385.5,94.5,368.4,94.5,368.4,88.8z"/>
<path class="st0" d="M281.8,36.9c0-3.7-17.1-3.7-17.1,0c0,23.9,0,47.8,0,71.7c0,5.7,17.1,5.7,17.1,0
	C281.8,84.7,281.8,60.8,281.8,36.9z"/>
<path class="st1" d="M281.8,36.9c0-3.7-17.1-3.7-17.1,0C264.7,40.7,281.8,40.6,281.8,36.9z"/>
<path class="st5" d="M264.7,56.8c-1.4,0-2.7,0-4.1,0c0,4.4,0,8.9,0,13.3c1.4,0,2.7,0,4.1,0C264.7,65.7,264.7,61.3,264.7,56.8z"/>
<path class="st2" d="M264.7,88.8c0,6.6,0,13.2,0,19.9c0,5.7,17.1,5.7,17.1,0c0-6.6,0-13.2,0-19.9C281.8,94.5,264.7,94.5,264.7,88.8z
	"/>
<path class="st0" d="M178.1,36.9c0-3.7-17.1-3.7-17.1,0c0,23.9,0,47.8,0,71.7c0,5.7,17.1,5.7,17.1,0
	C178.1,84.7,178.1,60.8,178.1,36.9z"/>
<path class="st1" d="M178.1,36.9c0-3.7-17.1-3.7-17.1,0C161,40.7,178.1,40.6,178.1,36.9z"/>
<path class="st5" d="M161,56.8c-1.4,0-2.7,0-4.1,0c0,4.4,0,8.9,0,13.3c1.4,0,2.7,0,4.1,0C161,65.7,161,61.3,161,56.8z"/>
<path class="st2" d="M161,88.8c0,6.6,0,13.2,0,19.9c0,5.7,17.1,5.7,17.1,0c0-6.6,0-13.2,0-19.9C178.1,94.5,161,94.5,161,88.8z"/>
<path class="st0" d="M74.5,36.9c0-3.7-17.1-3.7-17.1,0v71.7c0,5.7,17.1,5.7,17.1,0V36.9z"/>
<path class="st1" d="M74.5,36.9c0-3.7-17.1-3.7-17.1,0C57.3,40.7,74.5,40.6,74.5,36.9z"/>
<rect x="53.2" y="56.8" class="st5" width="4.1" height="13.3"/>
<path class="st2" d="M57.3,88.8v19.9c0,5.7,17.1,5.7,17.1,0V88.8C74.5,94.5,57.3,94.5,57.3,88.8z"/>
</svg>
