<?xml version="1.0" encoding="iso-8859-1"?>
<!-- Uploaded to: SVG Repo, www.svgrepo.com, Generator: SVG Repo Mixer Tools -->
<svg height="800px" width="800px" version="1.1" id="Layer_1" xmlns="http://www.w3.org/2000/svg" xmlns:xlink="http://www.w3.org/1999/xlink" 
	 viewBox="0 0 512.001 512.001" xml:space="preserve">
<path style="fill:#C7E5F4;" d="M414.23,512H97.771c-10.687,0-19.351-8.664-19.351-19.351v-61.375
	c0-97.918,79.662-177.581,177.581-177.581s177.581,79.662,177.581,177.581v61.375C433.581,503.337,424.917,512,414.23,512z"/>
<g>
	<path style="fill:#60BFE1;" d="M255.999,253.694v258.307h158.229c10.687,0,19.351-8.664,19.351-19.351v-61.375
		C433.581,333.356,353.919,253.694,255.999,253.694z"/>
	<path style="fill:#60BFE1;" d="M78.42,431.275v2.901h355.162v-2.901c0-12.26-1.249-24.234-3.626-35.802H82.046
		C79.669,407.04,78.42,419.014,78.42,431.275z"/>
	<path style="fill:#60BFE1;" d="M95.275,355.812h321.45c-6.596-13.994-14.966-26.991-24.821-38.703H120.097
		C110.243,328.822,101.873,341.818,95.275,355.812z"/>
</g>
<path style="fill:#FFEAB2;" d="M255.999,238.43c-65.734,0-119.214-53.48-119.214-119.215C136.785,53.48,190.265,0,255.999,0
	s119.214,53.48,119.214,119.214C375.215,184.95,321.735,238.43,255.999,238.43z"/>
<path style="fill:#FFE08C;" d="M255.999,0v238.43c65.734,0,119.214-53.48,119.214-119.215C375.215,53.48,321.735,0,255.999,0z"/>
<path style="fill:#60BFE1;" d="M297.32,125.537c-13.724,0-27.55-2.4-40.966-7.263c-35.543-12.885-62.27-40.977-73.327-77.074
	c-2.526-8.245,0.708-17.166,7.932-21.876C210.34,6.681,232.83,0,255.999,0c26.034,0,50.771,8.245,71.535,23.845
	c20.062,15.072,35.14,36.528,42.457,60.415c2.526,8.245-0.708,17.165-7.93,21.876C342.377,118.978,319.996,125.537,297.32,125.537z"
	/>
<g>
	<path style="fill:#2E9ADA;" d="M433.581,431.275c0-12.26-1.249-24.234-3.626-35.802H255.999v38.703H433.58v-2.901H433.581z"/>
	<path style="fill:#2E9ADA;" d="M391.904,317.109H255.999v38.703h160.726C410.129,341.818,401.759,328.822,391.904,317.109z"/>
	<path style="fill:#2E9ADA;" d="M369.992,84.261c-7.317-23.889-22.395-45.344-42.457-60.415C306.77,8.246,282.034,0,255.999,0
		v118.139c0.119,0.044,0.235,0.09,0.353,0.134c13.414,4.862,27.242,7.263,40.966,7.263c22.676,0,45.057-6.559,64.744-19.399
		C369.284,101.426,372.518,92.507,369.992,84.261z"/>
</g>
</svg>